<svg width="1200" height="360" viewBox="0 0 1200 360" fill="none" xmlns="http://www.w3.org/2000/svg" role="img" aria-labelledby="title desc">
<title id="title">Maryam Farmani — Software Engineer</title>
<desc id="desc">Minimal GitHub profile hero banner.</desc>
<rect width="1200" height="360" rx="28" fill="#FAFAFA"/>
<rect x="1" y="1" width="1198" height="358" rx="27" stroke="#E5E7EB"/>
<circle cx="1014" cy="72" r="156" fill="#F4F4F5"/>
<circle cx="1047" cy="90" r="92" fill="#FFFFFF" stroke="#E5E7EB"/>
<path d="M90 92h1020" stroke="#E5E7EB"/>
<circle cx="122" cy="62" r="8" fill="#111827"/>
<circle cx="150" cy="62" r="8" fill="#A1A1AA"/>
<circle cx="178" cy="62" r="8" fill="#D4D4D8"/>
<text x="90" y="154" fill="#111827" font-family="Inter, ui-sans-serif, system-ui, -apple-system, BlinkMacSystemFont, Segoe UI, sans-serif" font-size="54" font-weight="700" letter-spacing="-1.6">Maryam Farmani</text>
<text x="92" y="204" fill="#52525B" font-family="Inter, ui-sans-serif, system-ui, -apple-system, BlinkMacSystemFont, Segoe UI, sans-serif" font-size="22" font-weight="500">Software Engineer</text>
<text x="92" y="254" fill="#18181B" font-family="Inter, ui-sans-serif, system-ui, -apple-system, BlinkMacSystemFont, Segoe UI, sans-serif" font-size="28" font-weight="500" letter-spacing="-0.4">Building thoughtful software with TypeScript.</text>
<g transform="translate(92 292)">
<rect width="98" height="34" rx="17" fill="#111827"/>
<text x="22" y="23" fill="#FFFFFF" font-family="Inter, ui-sans-serif, system-ui" font-size="14" font-weight="600">Next.js</text>
<rect x="112" width="94" height="34" rx="17" fill="#FFFFFF" stroke="#E5E7EB"/>
<text x="135" y="23" fill="#111827" font-family="Inter, ui-sans-serif, system-ui" font-size="14" font-weight="600">NestJS</text>
<rect x="220" width="112" height="34" rx="17" fill="#FFFFFF" stroke="#E5E7EB"/>
<text x="244" y="23" fill="#111827" font-family="Inter, ui-sans-serif, system-ui" font-size="14" font-weight="600">TypeScript</text>
<rect x="346" width="108" height="34" rx="17" fill="#FFFFFF" stroke="#E5E7EB"/>
<text x="371" y="23" fill="#111827" font-family="Inter, ui-sans-serif, system-ui" font-size="14" font-weight="600">Postgres</text>
</g>
<g transform="translate(913 164)">
<rect width="176" height="92" rx="20" fill="#FFFFFF" stroke="#E5E7EB"/>
<text x="28" y="42" fill="#111827" font-family="Inter, ui-sans-serif, system-ui" font-size="22" font-weight="700">MF</text>
<text x="28" y="68" fill="#71717A" font-family="Inter, ui-sans-serif, system-ui" font-size="13" font-weight="500">Product Engineering</text>
</g>
</svg>
